<?xml version="1.0" standalone="no"?>
<!DOCTYPE svg PUBLIC "-//W3C//DTD SVG 20010904//EN"
 "http://www.w3.org/TR/2001/REC-SVG-20010904/DTD/svg10.dtd">
<svg version="1.0" xmlns="http://www.w3.org/2000/svg"
 width="1024.000000pt" height="1024.000000pt" viewBox="0 0 1024.000000 1024.000000"
 preserveAspectRatio="xMidYMid meet">

<g transform="translate(0.000000,1024.000000) scale(0.100000,-0.100000)"
fill="#000000" stroke="none">
<path d="M4060 8004 c-25 -2 -103 -9 -175 -15 -592 -49 -1159 -194 -1461 -372
-160 -94 -249 -182 -308 -307 l-31 -65 -3 -1965 c-1 -1285 1 -1983 8 -2020 60
-330 521 -613 1223 -749 429 -83 555 -93 1250 -98 l597 -5 0 136 0 136 -142 0
c-314 2 -1019 20 -1118 30 -801 79 -1390 293 -1519 552 l-31 61 0 409 c0 224
2 408 5 408 2 0 37 -21 76 -46 334 -217 905 -357 1644 -404 251 -16 233 -19
240 38 4 26 17 87 31 135 13 48 24 89 24 90 0 2 -51 4 -112 5 -661 15 -1307
153 -1649 353 -94 55 -202 157 -234 223 l-25 52 2 416 3 416 72 -44 c196 -119
548 -241 888 -308 894 -176 1975 -128 2725 120 182 61 324 127 505 235 66 39
150 85 188 102 l67 30 -2 847 -3 846 -37 76 c-166 334 -812 578 -1768 668
-112 11 -840 22 -930 14z m755 -284 c573 -34 1071 -136 1392 -285 165 -77 277
-169 309 -252 25 -66 8 -112 -70 -189 -202 -199 -708 -357 -1376 -431 -208
-23 -1009 -26 -1205 -5 -551 59 -918 148 -1210 292 -258 128 -345 254 -261
381 54 81 216 182 409 253 343 127 794 207 1352 240 128 7 507 5 660 -4z
m-2354 -1083 c331 -199 906 -335 1589 -378 234 -15 789 -6 1000 16 431 44 777
115 1075 222 108 38 283 123 355 172 l45 31 3 -437 2 -436 -25 -44 c-42 -70
-144 -147 -300 -223 -330 -162 -781 -263 -1345 -301 -201 -13 -811 -7 -985 11
-730 73 -1318 274 -1486 508 l-34 47 -3 438 c-1 240 -1 437 1 437 2 0 51 -28
108 -63z"/>
<path d="M6450 4970 c-31 -4 87 -7 264 -8 351 -1 340 1 390 -65 19 -26 19 -45
20 -919 0 -821 -2 -896 -17 -925 -34 -63 -53 -68 -337 -71 -277 -4 -358 4
-493 43 -211 61 -378 172 -497 330 -90 118 -159 297 -179 463 -6 46 -13 87
-16 93 -4 5 -110 9 -253 9 -241 0 -248 -1 -300 -25 -83 -38 -129 -82 -165
-154 -32 -65 -32 -67 -32 -216 0 -136 2 -155 24 -202 26 -59 103 -136 157
-159 20 -8 86 -19 147 -24 140 -12 227 -38 306 -91 75 -50 123 -105 161 -185
43 -88 57 -169 64 -347 6 -182 -3 -222 -59 -257 -42 -26 -120 -27 -158 -1 -58
38 -62 51 -67 247 -5 180 -5 181 -35 229 -43 69 -96 94 -221 105 -128 12 -199
31 -294 81 -96 50 -150 95 -199 168 -85 126 -112 232 -112 451 0 151 12 234
46 314 49 117 176 261 273 310 108 55 137 59 451 65 l293 6 34 94 c60 169 141
288 280 411 84 74 251 160 379 194 50 14 80 25 68 25 -12 1 -58 -10 -102 -24
-214 -68 -353 -161 -483 -324 -62 -78 -149 -245 -168 -323 l-12 -46 -291 -4
c-243 -4 -301 -8 -347 -22 -183 -59 -327 -201 -396 -392 -46 -126 -54 -344
-18 -519 36 -176 152 -326 314 -402 92 -44 202 -73 274 -73 81 0 146 -20 186
-57 58 -52 70 -99 70 -275 0 -163 8 -200 55 -236 66 -52 152 -47 211 12 44 44
48 78 36 284 -15 243 -50 339 -163 447 -83 79 -180 123 -300 136 -220 24 -272
43 -336 127 -40 53 -52 93 -59 207 -12 174 21 285 108 359 80 69 118 76 387
76 l239 0 7 -67 c18 -173 94 -373 190 -501 136 -181 365 -312 623 -357 100
-18 575 -21 634 -5 20 6 50 26 67 46 l31 35 0 129 0 130 402 0 c386 0 403 1
444 21 66 32 103 104 90 175 -9 47 -68 111 -114 124 -22 6 -195 10 -429 10
l-393 0 0 290 0 290 383 0 c210 0 400 5 421 10 77 17 126 73 134 149 6 68 -29
130 -91 160 -42 20 -58 21 -445 21 l-402 0 0 150 c0 168 -6 192 -62 232 -32
23 -37 23 -298 24 -146 1 -290 -2 -320 -6z"/>
</g>
</svg>
